<svg width="90" height="90" xmlns="http://www.w3.org/2000/svg" xmlns:xlink="http://www.w3.org/1999/xlink"><defs><path d="M71.66 35.952c0 19.569-15.865 35.433-35.433 35.433C16.658 71.385.794 55.521.794 35.952S16.658.519 36.227.519c19.568 0 35.433 15.864 35.433 35.433z" id="a"/><radialGradient cx="49.981%" cy="49.988%" fx="49.981%" fy="49.988%" r="50%" id="c"><stop stop-color="#5EB345" offset="0%"/><stop stop-color="#5FB346" offset="2.041%"/><stop stop-color="#91C679" offset="28.571%"/><stop stop-color="#9CCB83" offset="100%"/></radialGradient><path d="M38.227.031C17.284.031.306 17.01.306 37.951c0 20.944 16.978 37.922 37.921 37.922 20.943 0 37.921-16.978 37.921-37.922C76.148 17.01 59.17.031 38.227.031zm16.858 57.713l6.699-2.094c.072.035.268.204.364.25-1.418 1.602-7.219 8.135-8.398 9.465-1.458-1.519-16.93-17.568-16.93-17.568s-3.961 12.162-4.489 13.805a30562.14 30562.14 0 0 0-13.114-3.243l-3.743 4.85c-.067.025-.282.064-.392.104.424-2.497 1.675-9.971 1.944-11.559.659.125 10.319 2.559 10.319 2.559l4.617-25.585s-21.426.991-21.979.991l-.06-7.125c1.973.012 22.931.121 22.931.121s-1.571-12.158-1.781-13.797c1.362-.34 6.68-1.687 7.9-1.994l3.62 6.916-2.043 1.875-.904 7.541 21.541-.584c.197 1.193.728 4.65.99 6.226l-18.626-.466-1.776 13.57 13.31 15.742z" id="d"/></defs><g fill="none" fill-rule="evenodd"><path d="M89.552 44.952c0 24.48-19.846 44.326-44.325 44.326-24.48 0-44.326-19.846-44.326-44.326C.901 20.471 20.747.626 45.227.626c24.479 0 44.325 19.845 44.325 44.326" fill="#5EB345"/><g transform="translate(9 9)"><mask id="b" fill="#fff"><use xlink:href="#a"/></mask><path d="M71.66 35.952c0 19.569-15.865 35.433-35.433 35.433C16.658 71.385.794 55.521.794 35.952S16.658.519 36.227.519c19.568 0 35.433 15.864 35.433 35.433" fill="#5EB345" mask="url(#b)"/><path d="M71.673 35.96c0 19.559-15.874 35.433-35.433 35.433C16.681 71.393.807 55.519.807 35.96.807 16.401 16.681.527 36.24.527c19.559 0 35.433 15.874 35.433 35.433" fill="#5EB345" mask="url(#b)"/><path d="M71.673 35.96c0 19.559-15.874 35.433-35.433 35.433C16.681 71.393.807 55.519.807 35.96.807 16.401 16.681.527 36.24.527c19.559 0 35.433 15.874 35.433 35.433" fill="url(#c)" mask="url(#b)"/></g><g transform="translate(7 7)"><mask id="e" fill="#fff"><use xlink:href="#d"/></mask><path d="M38.227.031C17.284.031.306 17.01.306 37.951c0 20.944 16.978 37.922 37.921 37.922 20.943 0 37.921-16.978 37.921-37.922C76.148 17.01 59.17.031 38.227.031zm16.858 57.713l6.699-2.094c.072.035.268.204.364.25-1.418 1.602-7.219 8.135-8.398 9.465-1.458-1.519-16.93-17.568-16.93-17.568s-3.961 12.162-4.489 13.805a30562.14 30562.14 0 0 0-13.114-3.243l-3.743 4.85c-.067.025-.282.064-.392.104.424-2.497 1.675-9.971 1.944-11.559.659.125 10.319 2.559 10.319 2.559l4.617-25.585s-21.426.991-21.979.991l-.06-7.125c1.973.012 22.931.121 22.931.121s-1.571-12.158-1.781-13.797c1.362-.34 6.68-1.687 7.9-1.994l3.62 6.916-2.043 1.875-.904 7.541 21.541-.584c.197 1.193.728 4.65.99 6.226l-18.626-.466-1.776 13.57 13.31 15.742z" fill="#000" mask="url(#e)"/><path d="M76.101 37.9c0 20.932-16.989 37.921-37.921 37.921S.259 58.832.259 37.9 17.248-.021 38.18-.021 76.101 16.968 76.101 37.9" fill="#000" mask="url(#e)"/><path d="M76.101 37.9c0 20.932-16.989 37.921-37.921 37.921S.259 58.832.259 37.9 17.248-.021 38.18-.021 76.101 16.968 76.101 37.9" mask="url(#e)"/></g></g></svg>