<svg width="20" height="20" xmlns="http://www.w3.org/2000/svg"><g fill="none" fill-rule="evenodd"><path d="M-2-2h24v24H-2z"/><path d="M9.99 0C4.47 0 0 4.48 0 10s4.47 10 9.99 10C15.52 20 20 15.52 20 10S15.52 0 9.99 0zM10 18c-4.42 0-8-3.58-8-8s3.58-8 8-8 8 3.58 8 8-3.58 8-8 8zm3.5-9c.83 0 1.5-.67 1.5-1.5S14.33 6 13.5 6 12 6.67 12 7.5 12.67 9 13.5 9zm-7 0C7.33 9 8 8.33 8 7.5S7.33 6 6.5 6 5 6.67 5 7.5 5.67 9 6.5 9zm3.5 6.5c2.33 0 4.31-1.46 5.11-3.5H4.89c.8 2.04 2.78 3.5 5.11 3.5z" fill="#000"/></g></svg>