<svg width="142" height="142" xmlns="http://www.w3.org/2000/svg" xmlns:xlink="http://www.w3.org/1999/xlink"><defs><path id="a" d="M.06 142V.268h141.672V142z"/></defs><g fill="none" fill-rule="evenodd"><mask id="b" fill="#fff"><use xlink:href="#a"/></mask><path d="M141.732 122.003c0 10.998-8.998 19.997-19.996 19.997H19.997C8.999 142 0 133.001 0 122.003V20.266C0 9.267 8.999.268 19.997.268h101.739c10.998 0 19.996 8.999 19.996 19.998v101.737" fill="#010000" mask="url(#b)"/><path d="M21.879 103.459h3.523c6.739 0 11.13-3.625 11.13-12.355 0-7.25-4.391-11.028-11.59-11.028h-3.063v23.383zm-6.127 5.055V75.022h9.599c11.334 0 17.614 5.667 17.614 15.775 0 12.101-6.841 17.717-17.819 17.717h-9.394zm38.394 0h-5.769V83.395l5.769-.256v25.375zm-2.911-35.739c2.196 0 3.421 1.379 3.421 3.318 0 1.787-1.225 3.268-3.421 3.268-2.195 0-3.369-1.327-3.369-3.268 0-1.786 1.174-3.318 3.369-3.318zm23.282 18.993c0-3.063-1.686-4.697-4.902-4.697-2.859 0-4.901 1.634-4.901 5.054 0 3.268 1.838 4.646 4.799 4.646 3.166 0 5.004-1.48 5.004-5.003zm-5.31 22.465c5.513 0 7.505-1.379 7.505-3.37 0-1.481-.919-2.298-3.422-2.349l-8.371-.255c-.971.663-1.379 1.481-1.379 2.655 0 1.991 1.736 3.319 5.667 3.319zm-1.072-10.62h6.025c5.412 0 7.709 2.144 7.709 6.228 0 4.8-3.983 8.68-13.173 8.68-7.198 0-10.517-2.553-10.517-6.484 0-2.4 1.327-4.391 3.829-5.463v-.154c-1.174-.612-1.991-1.888-1.991-3.369 0-1.583.97-3.063 2.808-3.778v-.153c-2.298-1.277-3.625-3.421-3.625-6.689 0-6.126 4.135-9.445 10.518-9.445 1.378 0 2.604.153 3.879.511h8.17v3.829h-3.881v.153c1.073.817 1.992 2.553 1.992 4.748 0 5.565-3.779 8.476-10.722 8.476-1.123 0-2.196-.154-3.166-.409-.663.358-1.071.97-1.071 1.582 0 1.124.867 1.737 3.216 1.737z" fill="#FFFFFE"/><path d="M91.466 108.514h-5.769V83.395l5.769-.256v25.375zm-2.91-35.739c2.196 0 3.42 1.379 3.42 3.318 0 1.787-1.224 3.268-3.42 3.268-2.195 0-3.369-1.327-3.369-3.268 0-1.786 1.174-3.318 3.369-3.318zm16.338 30.684h3.523c6.739 0 11.129-3.625 11.129-12.355 0-7.25-4.39-11.028-11.589-11.028h-3.063v23.383zm-6.127 5.055V75.022h9.598c11.336 0 17.615 5.667 17.615 15.775 0 12.101-6.842 17.717-17.818 17.717h-9.395z" fill="#D66E2C"/></g></svg>