<svg xmlns="http://www.w3.org/2000/svg" viewBox="0 0 213.06 180.95"><path d="M213.06 48.31a47.83 47.83 0 0 0-8.21-26.12c-22.7-32.77-85.2-28.78-139.61 8.91s-79.6 95-56.91 127.74c22.59 32.61 85 28.65 139.26-8.58-30.38 16.94-56.68 17-68.43-.36-11.87-17.51.63-46.84 26.09-63.86 9.44-6.31 19.85-10.84 28.92-12.61l-3.41 17.27a1.7 1.7 0 0 0 .59 1.81 1.84 1.84 0 0 0 2-.06l52.48-28.81a2.65 2.65 0 0 0 1.28-1.73 1.65 1.65 0 0 0-.61-1.74l-41.08-28.36a2.09 2.09 0 0 0-2-.15 2.61 2.61 0 0 0-1.28 1.75l-2.58 12.88c-16.23 1.12-33.16 7.45-48.89 18.12-35.15 23.82-50.78 62.2-34.89 85.65a37.24 37.24 0 0 0 17.4 13.64 6.9 6.9 0 0 0 1.09.41 42.44 42.44 0 0 1-29.64-17.79C25 118 45.59 69.6 90.13 38.75s96.3-32.9 115.87-4.59a40.74 40.74 0 0 1 6.39 14c.16.7.63.65.63.1"/><path d="M115.22 141.32v-3a10.75 10.75 0 0 1-9.5 5.23c-4.1 0-8.83-2.39-8.83-12v-19.29l6.55-1.24v20c0 1.79.31 4.26 1.62 5.47 2.42 2.23 7.18.85 10.08-4.21v-20.02l6.49-1.24v32h-4.7a1.7 1.7 0 0 1-1.72-1.71m71.28-7.39l7.28-22.44h6.61l-10.94 31.29-.09.25h-5a1.73 1.73 0 0 1-1.64-1.18L172 111.49h7.12l7.39 22.44m-39.09-13.78l-7 22.9h-5a1.72 1.72 0 0 1-1.63-1.18l-8.67-30.38h7.11l5.59 21.64 6.7-21.64h6.32l6.86 21.64 5.6-21.64h6.6l-8.68 31.57h-5.1a1.76 1.76 0 0 1-1.62-1l-7.1-21.91"/></svg>