<svg xmlns="http://www.w3.org/2000/svg" height="165.333" width="234.667"><path d="M117.334 0S43.951 0 25.65 4.936C15.554 7.652 7.603 15.654 4.904 25.816.001 44.236 0 82.666 0 82.666s0 38.43 4.904 56.852c2.699 10.161 10.65 18.163 20.746 20.88 18.3 4.935 91.684 4.936 91.684 4.936s73.382 0 91.682-4.936c10.097-2.717 18.047-10.719 20.746-20.88 4.904-18.421 4.904-56.852 4.904-56.852s0-38.43-4.904-56.85c-2.699-10.162-10.649-18.164-20.746-20.88C190.716 0 117.334 0 117.334 0zm-24 47.775l61.332 34.893-61.332 34.89V47.776z"/></svg>